<?xml version="1.0" encoding="UTF-8" standalone="no"?><!DOCTYPE svg PUBLIC "-//W3C//DTD SVG 1.1//EN" "http://www.w3.org/Graphics/SVG/1.1/DTD/svg11.dtd">
<svg width="100%" height="100%" viewBox="0 0 1042 654" version="1.1"
    xmlns="http://www.w3.org/2000/svg"
    xmlns:xlink="http://www.w3.org/1999/xlink" xml:space="preserve"
    xmlns:serif="http://www.serif.com/" style="fill-rule:evenodd;clip-rule:evenodd;stroke-linejoin:round;stroke-miterlimit:2;">
    <rect id="Prancheta2" x="0" y="0" width="1041.67" height="653.632" style="fill:none;"/>
    <path d="M372.529,211.775c0,123.694 100.211,224.019 223.865,224.209l-0,-0.274c-84.673,-0.177 -153.287,-68.899 -153.287,-153.611c-0,-58.111 32.281,-108.689 79.88,-134.789l0,-147.31c-87.586,30.506 -150.458,113.802 -150.458,211.775Z" style="fill:#d6d3d0;fill-rule:nonzero;"/>
    <path d="M453.199,291.033c0,75.081 57.149,136.834 130.3,144.145c-36.636,-6.841 -64.392,-38.998 -64.392,-77.626c0,-43.488 35.165,-78.776 78.622,-78.957l-0,-132.423c-79.831,0.181 -144.53,64.982 -144.53,144.861Z" style="fill:#d6d3d0;fill-rule:nonzero;"/>
    <path d="M598.426,295.149c-38.956,0 -70.537,31.593 -70.537,70.551c0,38.965 31.581,70.548 70.537,70.548c38.967,-0 70.556,-31.583 70.556,-70.548c0,-0.649 -0.011,-1.289 -0.034,-1.933l0.188,-68.618l-70.71,0Zm39.27,29.978c0.239,-0.873 0.486,-1.745 0.716,-2.595c-0.764,-0.429 -1.53,-0.872 -2.321,-1.307c-0.803,-0.464 -1.61,-0.925 -2.442,-1.395l5.453,-0.123l1.013,-4.738l1.709,4.602l4.319,-0.341l-3.29,2.895l1.908,4.424l-3.916,-2.546l-3.882,3.832c0.24,-0.912 0.495,-1.816 0.733,-2.708Zm1.718,47.805l0.626,2.169l2.27,-0.065l-1.867,1.283l0.755,2.121l-1.784,-1.383l-1.8,1.383l0.766,-2.121l-1.862,-1.283l2.256,0.065l0.64,-2.169Zm-39.541,10.444l1.234,4.16l4.334,-0.122l-3.577,2.467l1.456,4.087l-3.447,-2.647l-3.428,2.647l1.449,-4.087l-3.579,-2.467l4.341,0.122l1.217,-4.16Zm18.908,24.818l0.872,2.944l3.058,-0.081l-2.517,1.736l1.031,2.885l-2.444,-1.874l-2.435,1.874l1.036,-2.885l-2.524,-1.736l3.059,0.081l0.864,-2.944Zm-44.072,0.05l0.79,2.697l2.802,-0.081l-2.309,1.587l0.944,2.641l-2.227,-1.721l-2.23,1.721l0.947,-2.641l-2.312,-1.587l2.814,0.081l0.781,-2.697Z" style="fill:#d6d3d0;fill-rule:nonzero;"/>
    <path d="M637.006,642.818l0,-0.034c-0.454,0.922 -0.938,1.784 -1.472,2.591c0.534,-0.798 1.018,-1.644 1.472,-2.557m-60.645,-9.458c0,3.43 -1.314,6.283 -3.898,8.47c-2.575,2.197 -5.584,3.322 -8.946,3.322c-4.253,-0 -7.484,-1.299 -9.607,-3.865c-2.123,-2.566 -3.199,-6.464 -3.199,-11.587c-0,-5.279 1.16,-9.309 3.437,-11.981c2.271,-2.674 5.494,-4.031 9.548,-4.031c3.71,0 6.794,1.052 9.145,3.134c2.345,2.08 3.52,5.024 3.52,8.757l0,7.781Zm0,-20.255l-0.072,-0.132c-3.028,-5.364 -8.497,-8.077 -16.268,-8.077c-7.576,-0 -13.495,2.426 -17.592,7.221c-4.111,4.795 -6.184,10.493 -6.184,16.959c0,6.941 1.99,12.829 5.938,17.491c3.938,4.689 9.704,7.065 17.115,7.065c8.37,-0 14.382,-3.446 17.893,-10.24l0.075,-0.156l-0,9.435l12.74,-0l-0,-62.076l-13.645,-0l0,22.51Zm-0.04,-10.758l-0.016,10.568c0.007,0.016 0.007,0.025 0.016,0.032l-0,-10.6Zm0.913,41.102l-0,-0.039c-0.452,0.871 -0.945,1.676 -1.472,2.442c0.527,-0.748 1.02,-1.555 1.472,-2.403m-24.689,-4.364c0.798,1.612 1.867,2.892 3.199,3.864c-1.332,-0.972 -2.394,-2.261 -3.199,-3.864m83.532,-10.281c-0,6.589 -1.571,10.939 -4.664,12.937c-3.077,2.004 -6.134,3.035 -9.103,3.035c-1.851,-0 -3.76,-0.518 -5.661,-1.549c-1.938,-1.035 -2.917,-3.24 -2.917,-6.536l0,-29.928l-13.948,-0l0,32.139c0,4.622 1.644,8.275 4.868,10.839c3.231,2.575 7.656,3.891 13.143,3.891c9.284,-0 15.741,-3.66 19.17,-10.873l0.075,-0.165l-0,10.077l12.671,-0l-0,-45.908l-13.634,-0l-0,22.041Zm184.802,8.954c0.097,-0.344 0.253,-0.649 0.353,-1.011l-0.009,0c-0.091,0.362 -0.247,0.667 -0.344,1.011m-114.842,0.009c0.115,-0.344 0.272,-0.649 0.362,-1.02c-0.099,0.371 -0.247,0.676 -0.362,1.02m56.681,14.943l3.716,0.009l-0,-0.009l-3.716,-0Zm-68.105,-16.851c-1.947,5.84 -5.987,8.8 -11.997,8.8c-3.914,-0 -7.007,-1.29 -9.195,-3.815c-2.178,-2.508 -3.297,-6.127 -3.297,-10.766c0,-4.366 1.068,-8.14 3.175,-11.201c2.096,-3.084 5.508,-4.646 10.154,-4.646c6.375,-0 10.133,2.878 11.169,8.562l11.729,-1.226c-0.947,-3.914 -2.658,-7.131 -5.093,-9.599c-1.472,-1.463 -3.247,-2.639 -5.23,-3.584c-3.584,-1.694 -8.009,-2.582 -13.29,-2.582c-8.15,-0 -14.777,2.277 -19.704,6.776c-4.902,4.488 -7.393,10.254 -7.393,17.122c-0,6.67 2.286,12.385 6.767,16.998c4.476,4.598 10.972,6.934 19.304,6.934c6.151,-0 11.472,-1.397 15.815,-4.144c4.309,-2.739 7.276,-7.016 8.824,-12.716l-11.738,-0.913Zm321.805,16.851l3.728,0.009l0,-0.009l-3.728,-0Zm-526.951,-28.373l-0,-0.048c0.452,-3.587 1.958,-6.391 4.474,-8.338c2.517,-1.951 5.707,-2.947 9.474,-2.947c3.791,-0 7.022,1.053 9.622,3.151c2.591,2.091 3.914,4.836 3.956,8.143l0.007,0.039l-27.533,0Zm14.605,-18.535c-8.799,-0 -15.871,2.295 -21.02,6.826c-5.148,4.531 -7.756,10.321 -7.756,17.221c-0,7.269 2.583,13.107 7.691,17.36c5.105,4.259 11.94,6.423 20.312,6.423c6.975,-0 12.863,-1.366 17.493,-4.054c4.606,-2.681 7.748,-6.12 9.351,-10.215l-12.329,-1.266c-2.367,4.951 -6.988,7.459 -13.742,7.459c-3.47,-0 -6.414,-0.706 -8.749,-2.107c-2.336,-1.406 -3.907,-3.066 -4.68,-4.933c-0.783,-1.875 -1.176,-4.407 -1.176,-7.525l-0,-0.041l41.712,0l0.049,-1.16c0,-6.981 -2.385,-12.796 -7.074,-17.262c-4.727,-4.465 -11.479,-6.726 -20.082,-6.726m-14.564,18.496l2.484,0l-2.484,0Zm40.1,16.225c0.18,-0.395 0.429,-0.766 0.592,-1.176l-0.016,0c-0.156,0.41 -0.403,0.781 -0.576,1.176m-12.657,-16.225c-0,-0.182 -0.05,-0.338 -0.057,-0.51c0.007,0.172 0.05,0.328 0.057,0.51m403.716,-6.95l0,0.032c0.561,-0.972 1.127,-1.874 1.728,-2.722c-0.601,0.839 -1.167,1.736 -1.728,2.69m32.083,-7.714c-3.8,-2.55 -8.397,-3.832 -13.669,-3.832c-7.846,-0 -14.021,3.898 -18.371,11.594l-0.083,0.14l-0,-10.773l-12.435,-0l-0,45.908l13.628,-0l0,-23.595c0,-4.755 1.355,-8.374 4.068,-10.742c2.675,-2.36 5.84,-3.559 9.41,-3.559c2.573,0 4.827,0.78 6.702,2.309c1.842,1.538 2.78,3.857 2.78,6.892l0,28.695l13.643,-0l0,-29.65c0,-6.348 -1.915,-10.855 -5.673,-13.387m-126.51,43.037l13.628,-0l0,-45.908l-13.628,-0l-0,45.908Zm47.699,-7.519c-4.212,-0 -7.566,-1.339 -9.992,-3.98c-2.419,-2.639 -3.644,-6.505 -3.644,-11.497c-0,-4.623 1.151,-8.404 3.439,-11.217c2.285,-2.803 5.838,-4.227 10.574,-4.227c4.533,-0 7.963,1.381 10.197,4.094c2.198,2.724 3.317,6.482 3.317,11.16c-0,10.396 -4.672,15.667 -13.891,15.667m20.468,-32.755c-5.205,-4.375 -11.949,-6.595 -20.032,-6.595c-8.528,-0 -15.51,2.277 -20.708,6.776c-5.207,4.483 -7.846,10.188 -7.846,16.95c0,6.274 2.394,11.917 7.098,16.767c4.703,4.87 11.612,7.337 20.551,7.337c8.273,-0 15.223,-2.229 20.641,-6.629c5.395,-4.382 8.134,-10.264 8.134,-17.475c0,-6.992 -2.64,-12.758 -7.838,-17.131m72.051,5.849c-0.056,0.221 -0.172,0.425 -0.214,0.656l0.009,-0c0.042,-0.231 0.156,-0.435 0.205,-0.656m61.574,34.425l13.634,-0l0,-62.076l-13.634,-0l0,62.076Zm-23.01,-19.123c0,3.175 -1.34,6.055 -3.99,8.562c-2.681,2.492 -6.661,3.767 -11.867,3.767c-3.584,-0 -6.324,-0.683 -8.117,-2.039c-1.793,-1.35 -2.699,-3.01 -2.699,-4.936c-0,-6.396 8.957,-9.645 26.631,-9.645l0.042,-0l0,4.291Zm13.29,9.862l0,-20.766c0,-3.923 -0.395,-6.736 -1.161,-8.373c-0.772,-1.636 -2.205,-3.174 -4.242,-4.58c-2.025,-1.391 -4.542,-2.401 -7.502,-2.994c-3,-0.592 -6.866,-0.895 -11.488,-0.895c-8.611,-0 -15.288,1.241 -19.837,3.701c-4.524,2.451 -7.138,5.607 -7.787,9.383l11.587,1.307c1.143,-4.737 5.936,-7.138 14.218,-7.138c8.578,-0 12.922,2.408 12.922,7.188l0,3.511l-0.042,-0c-1.538,-0.034 -2.845,-0.057 -3.889,-0.057c-9.451,0 -17.115,0.814 -22.93,2.392c-4.228,1.153 -7.484,2.739 -9.779,4.737c-2.656,2.32 -4.02,5.223 -4.02,8.668c0,4.047 1.843,7.443 5.485,10.107c3.661,2.665 8.553,4.031 14.558,4.031c10.023,-0 16.931,-3.446 20.543,-10.24l0.066,-0.131l0.008,0.149c0.254,3.396 0.96,6.514 2.104,9.261l12.977,-0c-1.184,-3.152 -1.791,-6.26 -1.791,-9.261m-311.929,-21.795l-0,-0.007l-1.029,0.106l1.029,-0.099Zm297.084,24.187c0.568,-0.73 1.061,-1.521 1.522,-2.367c-0,-0.009 -0.009,-0.018 -0.009,-0.025c-0.452,0.853 -0.945,1.653 -1.513,2.392m-252.157,-12.254c0,3.175 -1.341,6.055 -3.988,8.562c-2.666,2.492 -6.661,3.767 -11.852,3.767c-3.61,-0 -6.331,-0.683 -8.117,-2.039c-1.8,-1.366 -2.713,-3.028 -2.713,-4.936c0,-6.396 8.965,-9.645 26.638,-9.645l0.032,-0l0,4.291Zm13.299,9.862l-0,-20.766c-0,-3.914 -0.396,-6.736 -1.176,-8.373c-0.766,-1.636 -2.187,-3.174 -4.228,-4.58c-2.03,-1.391 -4.556,-2.401 -7.499,-2.994c-3.012,-0.592 -6.876,-0.895 -11.499,-0.895c-8.601,-0 -15.28,1.241 -19.843,3.701c-4.524,2.451 -7.13,5.607 -7.772,9.383l11.578,1.307c1.144,-4.737 5.93,-7.138 14.23,-7.138c8.569,-0 12.91,2.408 12.91,7.188l0,3.511l-0.032,-0c-1.539,-0.034 -2.846,-0.057 -3.899,-0.057c-9.227,0 -16.761,0.764 -22.524,2.286c-4.54,1.185 -7.986,2.853 -10.346,4.983c-2.549,2.311 -3.859,5.148 -3.859,8.528c-0,4.047 1.851,7.443 5.487,10.107c3.667,2.665 8.569,4.031 14.565,4.031c10.009,-0 16.925,-3.446 20.534,-10.24l0.074,-0.131l0,0.149c0.256,3.396 0.972,6.514 2.107,9.261l12.976,-0c-1.183,-3.152 -1.784,-6.26 -1.784,-9.261m61.631,-42.116l13.628,-0l0,-10.699l-13.628,-0l-0,10.699Zm-76.476,44.508c0.558,-0.73 1.062,-1.521 1.514,-2.367l0,-0.025c-0.452,0.853 -0.956,1.653 -1.514,2.392m-37.016,-27.565c-0.048,0.23 -0.165,0.434 -0.204,0.665l0.007,-0c0.041,-0.231 0.149,-0.435 0.197,-0.665m108.466,3.378l-0,-0.007l-1.018,0.106l1.018,-0.099Zm-11.76,14.244c-1.956,5.84 -5.995,8.8 -11.998,8.8c-3.923,-0 -7.014,-1.29 -9.195,-3.815c-2.187,-2.5 -3.297,-6.127 -3.297,-10.766c-0,-4.366 1.067,-8.14 3.165,-11.201c2.097,-3.084 5.519,-4.646 10.165,-4.646c6.374,-0 10.132,2.878 11.168,8.562l11.727,-1.226c-0.945,-3.914 -2.657,-7.131 -5.099,-9.599c-1.381,-1.389 -3.066,-2.499 -4.917,-3.419c-3.636,-1.793 -8.167,-2.747 -13.602,-2.747c-8.151,-0 -14.78,2.277 -19.704,6.776c-4.902,4.488 -7.385,10.254 -7.385,17.122c0,6.677 2.268,12.403 6.768,16.998c4.465,4.598 10.963,6.934 19.301,6.934c6.143,-0 11.472,-1.397 15.806,-4.144c4.317,-2.739 7.286,-7.016 8.823,-12.716l-11.726,-0.913Z" style="fill:#d6d3d0;fill-rule:nonzero;"/>
    <path d="M999.197,544.68c-2.145,2.024 -4.596,4.045 -7.269,6.021l-3.355,2.475l0,-0.345c-3.224,1.637 -7.106,2.599 -11.596,2.844l-0.131,0.009l-0.116,-0.009c-9.966,-0.567 -15.297,-4.02 -15.847,-10.271c-0.214,-6.283 2.919,-9.087 5.61,-10.362c3.296,-1.547 8.361,-2.91 15.492,-4.161c6.694,-1.161 11.711,-2.484 14.919,-3.931l2.96,-1.334l0,18.447l-0.667,0.617Zm42.47,26.186l-0,-62.528c-0,-12.204 -3.446,-21.183 -10.229,-26.686c-6.934,-5.625 -21.309,-8.668 -42.743,-9.039c-1.158,-0.009 -2.317,-0.016 -3.461,-0.016c-38.728,0 -59.006,9.844 -60.356,29.268l40.331,0c1.241,-4.786 5.559,-9.695 18.017,-9.695c13.751,-0 16.638,5.584 16.638,10.273c0,2.795 -1.218,6.487 -6.975,8.282c-2.901,1.05 -8.354,2.031 -16.577,2.935c-7.847,0.871 -14.615,1.66 -20.109,2.367c-5.281,0.685 -10.888,1.965 -16.677,3.817c-5.643,1.81 -10.332,4.235 -13.94,7.219c-5.248,4.542 -7.821,10.545 -7.821,18.35c-0,9.918 3.726,16.884 11.373,21.266c7.994,4.572 16.959,7.016 26.638,7.228c0.699,0.018 1.406,0.025 2.105,0.025c12.057,0 22.756,-2.417 31.82,-7.194l6.932,-4.393l3.231,-2.032l0,10.553l41.803,0Zm-372.498,-45.076l0.009,5.765c-0,6.275 -8.834,17.855 -21.416,17.855c-7.115,-0 -12.772,-2.749 -16.358,-7.938c-3.389,-4.9 -5.1,-10.796 -5.1,-17.549c0,-6.209 1.58,-11.884 4.714,-16.885c3.323,-5.313 8.643,-8.074 15.824,-8.214l0.007,-0c7.601,-0 13.315,2.523 17.025,7.499c3.56,4.794 5.362,10.586 5.362,17.222c0,0.757 -0.025,1.505 -0.067,2.245m-0.807,-37.296l-3.584,-3.561c-8.216,-8.176 -19.268,-12.32 -32.856,-12.32c-7.969,-0 -15.632,1.958 -22.77,5.824c-7.115,3.864 -13.003,9.555 -17.477,16.923c-4.465,7.362 -6.737,16.333 -6.737,26.663c-0,19.13 4.804,32.608 14.278,40.075c9.631,7.592 21.688,11.565 35.824,11.809c7.993,0 15.017,-1.528 20.848,-4.538c0.566,-0.321 6.948,-4.128 9.91,-6.465l3.396,-2.68l0.009,4.334l-0,6.406l40.511,-0.089l-0,-131.708l-41.352,-0l-0,49.327Zm-142.068,62.361c-14.253,0 -21.473,-9.851 -21.473,-29.284c-0.312,-6.522 1.267,-12.681 4.712,-18.216c3.618,-5.822 9.688,-8.841 18.045,-8.972c5.27,0 9.546,1.57 12.729,4.678c3.034,2.969 5.216,6.661 6.491,10.988c1.223,4.17 1.84,8.043 1.84,11.522c0,13.364 -3.873,29.284 -22.344,29.284m52.643,-56.555c-0.24,-0.33 -0.536,-0.592 -0.775,-0.905c0.058,-0.083 0.092,-0.181 0.14,-0.271c-2.869,-3.774 -6.842,-7.592 -10.724,-10.174c-5.774,-3.841 -12.344,-6.702 -19.539,-8.47c-6.367,-1.571 -12.788,-2.369 -19.098,-2.369c-0.617,0 -1.241,0.018 -1.867,0.034c-0.254,-0 -0.493,-0.034 -0.747,-0.034c-0.782,0.018 -1.539,0.108 -2.303,0.14c-10.148,0.247 -19.589,2.008 -28.068,5.386c-8.98,3.57 -16.258,9.335 -21.646,17.131c-5.354,7.764 -8.067,17.429 -8.067,28.702c-0,11.004 2.532,20.148 8.026,27.568c1.307,1.768 7.688,8.987 11.563,11.569c5.781,3.85 12.344,6.704 19.541,8.481c6.365,1.56 12.795,2.369 19.096,2.369c0.624,0 1.25,-0.025 1.865,-0.034c0.265,0 0.504,0.034 0.767,0.034c0.78,-0.025 1.519,-0.117 2.293,-0.149c10.158,-0.238 19.599,-1.999 28.069,-5.379c8.98,-3.568 16.258,-9.342 21.637,-17.131c1.218,-1.759 2.27,-3.626 3.208,-5.566c-2.22,-6.564 -3.364,-14.443 -3.364,-23.661c-0,-7.746 1.282,-14.739 3.807,-20.839c-1.085,-2.279 -2.342,-4.434 -3.814,-6.432m-113.863,5.073c-1.736,-7.728 -5.148,-13.717 -10.271,-17.787c-7.871,-6.251 -18.291,-9.425 -30.939,-9.425c-15.263,-0 -27.888,6.003 -37.551,17.845l-3.733,4.583l-0,-19.772l-37.396,0l0,95.597l41.359,-0l0,-48.843c0,-8.406 1.687,-14.12 5.157,-17.477c3.405,-3.296 8.438,-4.967 14.992,-4.967c0.265,-0.016 0.584,-0.016 0.914,-0.016c7.778,0 17.031,3.536 17.031,20.371l0,50.932l41.803,-0l-0,-20.767c-4.063,-7.361 -6.078,-15.962 -6.078,-26.177c0,-8.948 1.596,-17.006 4.712,-24.097m332.817,33.112l-0.009,0.386l-0,11.192l-0.665,0.617c-2.155,2.024 -4.597,4.045 -7.269,6.021l-3.349,2.475l0,-0.345c-3.231,1.637 -7.114,2.599 -11.621,2.844l-0.113,0.009l-0.115,-0.009c-9.969,-0.567 -15.291,-4.02 -15.831,-10.271c-0.231,-6.283 2.91,-9.087 5.6,-10.362c3.281,-1.547 8.354,-2.91 15.492,-4.161c6.688,-1.161 11.705,-2.484 14.913,-3.931l2.967,-1.334l-0,6.869Zm31.564,-50.833c-6.932,-5.625 -21.307,-8.668 -42.733,-9.039c-1.158,-0.009 -2.327,-0.016 -3.471,-0.016c-38.725,0 -59.006,9.844 -60.347,29.268l40.322,0c1.243,-4.786 5.56,-9.695 18.028,-9.695c13.75,-0 16.637,5.584 16.637,10.273c-0,2.795 -1.217,6.487 -6.982,8.282c-2.903,1.05 -8.355,2.031 -16.58,2.935c-7.845,0.871 -14.614,1.66 -20.099,2.367c-5.287,0.685 -10.896,1.965 -16.686,3.817c-5.65,1.81 -10.346,4.235 -13.932,7.219c-5.255,4.542 -7.837,10.545 -7.837,18.35c0,9.918 3.733,16.884 11.391,21.266c7.984,4.572 16.948,7.016 26.62,7.228c0.717,0.018 1.414,0.025 2.096,0.025c12.074,0 22.782,-2.417 31.836,-7.194l6.942,-4.393l3.222,-2.032l-0,10.553l41.804,0l-0,-62.528c-0,-12.204 -3.447,-21.183 -10.231,-26.686m-697.445,-10.002l1.193,-0.592c2.508,-1.274 5.157,-2.417 7.862,-3.411l-0,-28.588l-141.065,-0l0,35.973l46.885,-0l-0,95.834l47.74,0l-0,-95.834l31.259,-0c2.081,-1.35 3.973,-2.295 6.126,-3.382m15.503,35.989l0.09,-0.353c0.041,-0.157 0.091,-0.314 0.124,-0.47l0.204,-0.723l0.018,-0c2.985,-9.415 10.396,-14.013 22.625,-14.029c12.022,0.09 20.821,7.737 22.426,19.48l0.328,2.378l-2.408,0.009l-13.793,0c-0.625,0.016 -1.364,0.025 -2.162,0.041l-28.562,0c0.386,-3.077 0.847,-5.395 1.11,-6.333m42.749,36.209c-1.983,6.218 -8.562,10.002 -17.642,10.002c-7.467,0 -14.843,-2.615 -19.769,-7.015c-4.005,-2.928 -5.922,-8.456 -6.711,-14.466l11.266,0c0.009,0.023 0.009,0.032 0.016,0.057c1.488,-0.016 3.76,-0.041 6.317,-0.057l29.623,0l-0,-0.016l25.962,0.066c-1.964,-10.215 -0.501,-21.284 5.881,-35.166c-11.752,-14.943 -33.586,-24.762 -56.367,-24.762c-35.528,-0 -63.358,22.295 -63.358,50.767c-0,31.11 24.655,50.561 64.361,50.774l0.674,-0c25.101,-0 44.516,-8.158 55.133,-22.476c-1.537,-2.666 -2.844,-4.859 -3.905,-7.731l-31.481,0.023Zm720.931,2.501l-3.288,0.018c-5.084,-0 -12.403,-4.253 -12.403,-10.905l-0,-41.393l21.786,0l-0,-18.791l-21.786,0l-0,-35.546l-40.914,0l-0,35.546l-22.386,0c7.69,4.432 11.595,10.946 13.324,18.791l8.173,0l0,2.098l0.165,51.579c0.032,9.754 9.571,23.876 26.736,23.884l43.711,0.016c-9.103,-4.703 -13.388,-14.515 -13.118,-25.297m-621.807,-73.736c-11.3,-0 -21.219,1.431 -29.469,4.261c-8.182,2.795 -14.877,6.702 -19.909,11.588c-5.04,4.893 -8.791,10.436 -11.167,16.464c-2.411,6.086 -3.76,12.763 -4.047,19.842c-0,13.53 5.494,25.216 16.341,34.642c10.781,9.367 26.587,14.113 47.001,14.113l0.805,-0c17.452,-0 31.893,-3.357 42.946,-9.962c2.517,-1.503 4.836,-3.231 6.916,-5.164l0,-21.915l-30.502,-0c-2.064,9.326 -8.546,14.433 -18.842,14.827l-0.6,0.007c-7.476,0 -13.134,-2.663 -16.819,-7.934c-3.61,-5.15 -5.451,-11.827 -5.451,-19.837c0.172,-9.442 2.046,-16.604 5.607,-21.316c3.702,-4.911 9.343,-7.394 16.754,-7.394c5.32,0 9.736,1.447 13.125,4.285c2.993,2.532 4.836,5.937 5.478,10.156l31.25,0l0,-21.275c-1.949,-1.834 -4.169,-3.536 -6.62,-5.058c-10.972,-6.851 -25.372,-10.33 -42.797,-10.33" style="fill:#d6d3d0;fill-rule:nonzero;"/>
</svg>